<svg xmlns="http://www.w3.org/2000/svg" viewBox="0 0 261.5 260.83"><defs><style>.cls-1{opacity:0.08;}.cls-2{fill:#ec6221;}</style></defs><title>pizza_BG</title><g id="Layer_2" data-name="Layer 2"><g id="Layer_1-2" data-name="Layer 1"><g class="cls-1"><path class="cls-2" d="M261.5,0,242.68,57c-21.24.14-29.48,4.54-32.54,17.21-2.89,12,2.21,20.73,17.33,28.84l-38,115.08-13.12-6.77c7.24-17,4.78-28.66-7-35.57-10.84-6.34-22.38-3-32.15,9.19-28.46-13.57-81.74-73.67-93.85-113.08,18.87-6.21,37.71-12.6,56.72-18.42,2-.63,5.79,1.37,7.55,3.27,8.94,9.59,19.56,12.91,31.88,8.68,12-4.11,18.05-13.14,19.53-25.68.3-2.58,2.1-6.47,4.09-7.15C195.14,21.73,227.3,11.25,261.5,0ZM128.21,138.37a32.45,32.45,0,0,0,45.31.26c12.69-12.49,12.5-33.3-.42-45.91a32,32,0,1,0-44.89,45.65Z"/><path class="cls-2" d="M0,86.24l28.27-9.33c7.94,14,14.93,28.15,23.55,41.21,31.44,47.63,73.67,83.22,124.54,108.6,7.28,3.64,9.19,7.06,5.73,14.41-2.68,5.68-4.14,11.94-6.21,17.92-.18.53-.84.89-1.73,1.78C97.75,221.58,37.28,166.34,0,86.24Z"/></g></g></g></svg>