<svg xmlns="http://www.w3.org/2000/svg" viewBox="0 0 30.44 30.36"><defs><style>.cls-1{fill:#ec6221;}</style></defs><title>pizza</title><g id="Layer_2" data-name="Layer 2"><g id="Layer_1-2" data-name="Layer 1"><path class="cls-1" d="M30.44,0,28.25,6.64c-2.47,0-3.43.53-3.79,2s.26,2.41,2,3.36c-1.46,4.41-2.92,8.84-4.42,13.39l-1.53-.78c.84-2,.56-3.34-.82-4.14s-2.6-.36-3.74,1.07C12.66,20,6.46,13,5.05,8.37c2.19-.72,4.39-1.46,6.6-2.14a1.15,1.15,0,0,1,.88.38,3.28,3.28,0,0,0,3.71,1,3.3,3.3,0,0,0,2.27-3c0-.3.25-.75.48-.83C22.71,2.53,26.46,1.31,30.44,0ZM14.92,16.11a3.73,3.73,0,1,0,0-5.28A3.79,3.79,0,0,0,14.92,16.11Z"/><path class="cls-1" d="M0,10,3.29,9C4.22,10.58,5,12.23,6,13.75a36.53,36.53,0,0,0,14.5,12.64c.85.42,1.07.82.67,1.68a19,19,0,0,0-.73,2.08c0,.07-.09.11-.2.21C11.38,25.79,4.34,19.36,0,10Z"/></g></g></svg>